<?xml version="1.0" encoding="UTF-8" standalone="no"?>
<svg width="19px" height="21px" viewBox="0 0 19 21" version="1.1" xmlns="http://www.w3.org/2000/svg" xmlns:xlink="http://www.w3.org/1999/xlink" xmlns:sketch="http://www.bohemiancoding.com/sketch/ns">
    <!-- Generator: Sketch 3.0.4 (8053) - http://www.bohemiancoding.com/sketch -->
    <title>Imported Layers</title>
    <desc>Created with Sketch.</desc>
    <defs></defs>
    <g id="Page-1" stroke="none" stroke-width="1" fill="none" fill-rule="evenodd" sketch:type="MSPage">
        <g id="Text-Bar--normal" sketch:type="MSLayerGroup" transform="translate(-138.000000, -13.000000)" fill="#FFFFFF">
            <g id="Imported-Layers" transform="translate(138.000000, 14.000000)" sketch:type="MSShapeGroup">
                <path d="M3.81973077,6.86508 L3.81973077,6.86508 C2.96619231,5.97664 2.96619231,4.53036 3.82046154,3.64116 C4.67473077,2.75196 6.06611538,2.75196 6.92038462,3.6404 L10.5376923,7.4024 C11.3926923,8.2916 11.3926923,9.73788 10.5376923,10.62632 L10.0210385,11.1644 L12.0876538,13.31444 L12.6043077,12.77636 C14.6015,10.69928 14.6022308,7.33096 12.6043077,5.25312 L8.98773077,1.49112 C6.98980769,-0.58596 3.75103846,-0.5852 1.75311538,1.49188 C-0.244076923,3.56896 -0.244076923,6.93728 1.75311538,9.01436 L3.21538462,10.53512 C3.08896154,9.29024 3.29357692,8.01724 3.81973077,6.86508" id="Fill-1"></path>
                <path d="M17.2461538,10.07988 L15.7846154,8.56064 C15.9103077,9.80552 15.7064231,11.07776 15.1795385,12.23068 L15.1788077,12.22992 C16.0338077,13.11912 16.0338077,14.56464 15.1788077,15.45384 C14.3245385,16.34304 12.9331538,16.34304 12.0781538,15.45384 L8.46230769,11.69336 C7.60730769,10.80416 7.60730769,9.35712 8.46230769,8.46944 L8.97896154,7.93136 L6.91234615,5.78132 L6.39569231,6.3194 C4.39776923,8.39724 4.39776923,11.76404 6.39569231,13.84264 L10.0115385,17.60312 C12.0101923,19.68248 15.2482308,19.68172 17.2461538,17.60312 C19.2433462,15.5268 19.2440769,12.15848 17.2461538,10.07988" id="Fill-2"></path>
            </g>
        </g>
    </g>
</svg>