<?xml version="1.0" encoding="UTF-8" standalone="no"?>
<svg width="23px" height="14px" viewBox="0 0 23 14" version="1.1" xmlns="http://www.w3.org/2000/svg" xmlns:xlink="http://www.w3.org/1999/xlink" xmlns:sketch="http://www.bohemiancoding.com/sketch/ns">
    <!-- Generator: Sketch 3.0.4 (8053) - http://www.bohemiancoding.com/sketch -->
    <title>Line</title>
    <desc>Created with Sketch.</desc>
    <defs></defs>
    <g id="Page-1" stroke="none" stroke-width="1" fill="none" fill-rule="evenodd" sketch:type="MSPage">
        <g id="Main-Component-Parameters" sketch:type="MSArtboardGroup" transform="translate(-33.000000, -133.000000)" fill="#FFFFFF">
            <g id="Menu-Button" sketch:type="MSLayerGroup" transform="translate(14.000000, 115.000000)">
                <path d="M20.5,20 L39.5,20 L40.5,20 L40.5,18 L39.5,18 L20.5,18 L19.5,18 L19.5,20 L20.5,20 L20.5,20 Z M20.5,26 L39.5,26 L40.5,26 L40.5,24 L39.5,24 L20.5,24 L19.5,24 L19.5,26 L20.5,26 M20.5,32 L39.5,32 L40.5,32 L40.5,30 L39.5,30 L20.5,30 L19.5,30 L19.5,32 L20.5,32" id="Line" sketch:type="MSShapeGroup"></path>
            </g>
        </g>
    </g>
</svg>