<?xml version="1.0" encoding="UTF-8" standalone="no"?>
<svg width="20px" height="20px" viewBox="0 0 20 20" version="1.1" xmlns="http://www.w3.org/2000/svg" xmlns:xlink="http://www.w3.org/1999/xlink" xmlns:sketch="http://www.bohemiancoding.com/sketch/ns">
    <!-- Generator: Sketch 3.0.4 (8054) - http://www.bohemiancoding.com/sketch -->
    <title>Shape</title>
    <desc>Created with Sketch.</desc>
    <defs></defs>
    <g id="Page-1" stroke="none" stroke-width="1" fill="none" fill-rule="evenodd" sketch:type="MSPage">
        <g id="Main-Component-Parameters" sketch:type="MSArtboardGroup" transform="translate(-1375.000000, -124.000000)" fill="#FFFFFF">
            <g id="Group-2" sketch:type="MSLayerGroup" transform="translate(1375.000000, 124.000000)">
                <g id="trash-24" sketch:type="MSShapeGroup">
                    <path d="M18.7225,2.5 L13.3333333,2.5 C13.3333333,1.11833333 12.2133333,0 10.8333333,0 L9.16666667,0 C7.78583333,0 6.66666667,1.11916667 6.66666667,2.5 L1.2775,2.5 C0.5725,2.5 0,3.05916667 0,3.75 C0,4.44 0.5725,4.99916667 1.2775,4.99916667 L2.5,4.99916667 L2.5,16.6658333 C2.5,18.7375 3.71583333,19.9991667 5.83333333,19.9991667 L14.1666667,19.9991667 C16.2841667,19.9991667 17.5,18.7375 17.5,16.6658333 L17.5,4.99916667 L18.7225,4.99916667 C19.4275,4.99916667 20,4.44 20,3.75 C20,3.05916667 19.4275,2.5 18.7225,2.5 L18.7225,2.5 Z M15,16.6658333 C15,17.1266667 14.6275,17.5008333 14.1666667,17.5008333 L5.83333333,17.5008333 C5.37333333,17.5008333 5,17.1266667 5,16.6658333 L5,4.99916667 L15,4.99916667 L15,16.6658333 L15,16.6658333 Z M7.5,15.8325 L8.33333333,15.8325 C8.79416667,15.8325 9.16666667,15.46 9.16666667,14.9991667 L9.16666667,7.49916667 C9.16666667,7.03916667 8.79416667,6.66583333 8.33333333,6.66583333 L7.5,6.66583333 C7.04,6.66583333 6.66666667,7.03916667 6.66666667,7.49916667 L6.66666667,14.9991667 C6.66666667,15.46 7.04,15.8325 7.5,15.8325 L7.5,15.8325 Z M11.6666667,15.8325 L12.5,15.8325 C12.9608333,15.8325 13.3333333,15.46 13.3333333,14.9991667 L13.3333333,7.49916667 C13.3333333,7.03916667 12.9608333,6.66583333 12.5,6.66583333 L11.6666667,6.66583333 C11.2058333,6.66583333 10.8333333,7.03916667 10.8333333,7.49916667 L10.8333333,14.9991667 C10.8333333,15.46 11.2058333,15.8325 11.6666667,15.8325 L11.6666667,15.8325 Z" id="Shape"></path>
                </g>
            </g>
        </g>
    </g>
</svg>