<?xml version="1.0" encoding="UTF-8" standalone="no"?>
<svg width="25px" height="20px" viewBox="0 0 25 20" version="1.1" xmlns="http://www.w3.org/2000/svg" xmlns:xlink="http://www.w3.org/1999/xlink" xmlns:sketch="http://www.bohemiancoding.com/sketch/ns">
    <!-- Generator: Sketch 3.0.4 (8054) - http://www.bohemiancoding.com/sketch -->
    <title>Line</title>
    <desc>Created with Sketch.</desc>
    <defs></defs>
    <g id="Post" stroke="none" stroke-width="1" fill="none" fill-rule="evenodd" sketch:type="MSPage">
        <g id="404" sketch:type="MSArtboardGroup" transform="translate(-1167.000000, -32.000000)" fill="#353739">
            <g id="Top" sketch:type="MSLayerGroup" transform="translate(0.000000, -1.000000)">
                <path d="M1170,36 L1189,36 L1190,36 L1190,34 L1189,34 L1170,34 L1169,34 L1169,36 L1170,36 L1170,36 Z M1170,42 L1189,42 L1190,42 L1190,40 L1189,40 L1170,40 L1169,40 L1169,42 L1170,42 M1170,48 L1189,48 L1190,48 L1190,46 L1189,46 L1170,46 L1169,46 L1169,48 L1170,48" id="Line" sketch:type="MSShapeGroup"></path>
            </g>
        </g>
    </g>
</svg>